<svg width="95" height="31" viewBox="0 0 95 31" fill="none" xmlns="http://www.w3.org/2000/svg">
<g clip-path="url(#clip0_142_765)">
<path d="M17.7206 20.2014V24.0558C17.7206 24.2435 17.5775 24.3937 17.404 24.3937H0.319074C0.143182 24.3937 0.00246939 24.2412 0.00246939 24.0558V0.337824C0.00012417 0.15249 0.145528 0 0.319074 0H16.9771C17.153 0 17.2937 0.15249 17.2937 0.337824V4.1923C17.2937 4.37998 17.1507 4.53012 16.9771 4.53012H5.58408C5.40819 4.53012 5.26748 4.68261 5.26748 4.86794V9.48721C5.26748 9.67489 5.41054 9.82503 5.58408 9.82503H15.5724C15.7483 9.82503 15.889 9.97752 15.889 10.1629V13.8766C15.889 14.0642 15.7459 14.2144 15.5724 14.2144H5.58408C5.40819 14.2144 5.26748 14.3669 5.26748 14.5522V19.521C5.26748 19.7087 5.41054 19.8589 5.58408 19.8589H17.4016C17.5775 19.8589 17.7182 20.0113 17.7182 20.1967L17.7206 20.2014Z" fill="#F5F5F5"/>
<path d="M32.4953 6.85979V10.9019C32.4953 11.0896 32.3359 11.2327 32.1529 11.2187C31.8785 11.1975 31.6323 11.1788 31.3532 11.1788C28.5413 11.1788 26.6792 12.7154 26.6792 16.0842V24.0724C26.6792 24.2483 26.5361 24.3891 26.3626 24.3891H21.8973C21.7214 24.3891 21.5807 24.246 21.5807 24.0724V7.11785C21.5807 6.9419 21.7237 6.80114 21.8973 6.80114H26.1304C26.3063 6.80114 26.447 6.94424 26.447 7.11785V8.2627C26.447 8.54891 26.7894 8.68732 26.9934 8.48322C28.2036 7.26095 29.9719 6.60173 32.1717 6.54308C32.3499 6.53839 32.4953 6.68384 32.4953 6.86213V6.85744V6.85979Z" fill="#F5F5F5"/>
<path d="M53.5154 14.3199V24.0745C53.5154 24.2505 53.3724 24.3912 53.1988 24.3912H48.7335C48.5577 24.3912 48.4169 24.2481 48.4169 24.0745V15.1058C48.4169 12.2624 47.1083 10.9533 44.8522 10.9533C42.3991 10.9533 40.6332 12.4571 40.6332 15.6946V24.0769C40.6332 24.2528 40.4901 24.3936 40.3166 24.3936H35.8513C35.6754 24.3936 35.5347 24.2505 35.5347 24.0769V7.11999C35.5347 6.94404 35.6777 6.80328 35.8513 6.80328H40.0844C40.2603 6.80328 40.401 6.94639 40.401 7.11999V8.11C40.401 8.38213 40.7199 8.52993 40.9263 8.34929C42.2748 7.1716 44.1228 6.54053 46.2195 6.54053C50.3705 6.54053 53.5084 8.9616 53.5084 14.3222L53.5131 14.3175L53.5154 14.3199Z" fill="#F5F5F5"/>
<path d="M70.2697 6.9933L65.6755 18.0265C65.5676 18.2893 65.197 18.2869 65.0892 18.0265L60.5277 6.9933C60.4785 6.87366 60.3612 6.79858 60.2322 6.79858H55.6637C55.4362 6.79858 55.2815 7.03318 55.3706 7.24198L62.7955 24.5226L62.7322 24.6868C62.1131 26.1038 61.4118 26.7466 60.251 26.8592C60.1736 26.8756 60.0891 26.885 60 26.885H56.6018C56.4822 26.885 56.3743 26.9507 56.318 27.0586L55.2346 29.1724C55.1665 29.3061 55.197 29.4703 55.3119 29.5618C56.4752 30.4767 58.3209 31.0022 60.0211 31.0022C63.1919 31.0022 65.6121 29.726 67.3101 25.4751L75.0657 7.24432C75.1548 7.03553 75.0024 6.80328 74.7725 6.80328H70.5605C70.4315 6.80328 70.3166 6.88069 70.265 6.99799L70.2697 6.9933Z" fill="#F5F5F5"/>
<path d="M94.6833 6.79879C94.8592 6.79879 94.9999 6.94189 94.9999 7.1155V21.4472C94.9999 27.9878 91.4704 30.9954 85.1266 30.9954C81.909 30.9954 78.7828 30.2353 76.719 28.7432C76.59 28.6517 76.5525 28.4735 76.6322 28.3327L78.3466 25.2336C78.438 25.0671 78.6538 25.0178 78.8039 25.1281C80.3212 26.2143 82.6149 26.9087 84.7326 26.9087C88.3302 26.9087 89.8968 25.2735 89.8968 22.1017C89.8968 21.8319 89.5802 21.6818 89.3738 21.8601C88.0745 22.9885 86.3438 23.5422 84.3386 23.5422C79.4676 23.5422 75.5464 20.1757 75.5464 15.0379C75.5464 9.9002 79.4699 6.53369 84.3386 6.53369C86.4798 6.53369 88.2997 7.15773 89.6177 8.45037C89.817 8.64743 90.1571 8.50902 90.1571 8.22516V7.1155C90.1571 6.93955 90.3001 6.79879 90.4737 6.79879H94.681H94.6833ZM89.9648 15.0379C89.9648 12.4526 88.0347 10.7213 85.3564 10.7213C82.6782 10.7213 80.7152 12.455 80.7152 15.0379C80.7152 17.6209 82.6758 19.3546 85.3564 19.3546C88.037 19.3546 89.9648 17.6209 89.9648 15.0379Z" fill="#F5F5F5"/>
<path d="M16.2898 0H94.674C94.8522 0 94.9976 0.15249 94.9976 0.337824V4.18995C94.9976 4.37763 94.8522 4.52777 94.674 4.52777H16.2898C16.1116 4.52777 15.9662 4.37528 15.9662 4.18995V0.337824C15.9662 0.150144 16.1116 0 16.2898 0Z" fill="#F5F5F5"/>
<path d="M59.7022 26.8828H0.316604C0.141748 26.8828 0 27.0246 0 27.1995V30.681C0 30.8559 0.141748 30.9977 0.316604 30.9977H59.7022C59.877 30.9977 60.0188 30.8559 60.0188 30.681V27.1995C60.0188 27.0246 59.877 26.8828 59.7022 26.8828Z" fill="#F5F5F5"/>
<path d="M18.879 4.33551L15.2275 4.33786L15.2979 0.0869141H18.879" fill="#F5F5F5"/>
</g>
<defs>
<clipPath id="clip0_142_765">
<rect width="95" height="31" fill="white"/>
</clipPath>
</defs>
</svg>
